<svg viewBox="0 0 32 32" xmlns="http://www.w3.org/2000/svg">
  <defs>
    <!-- Simplified gradient for favicon -->
    <linearGradient id="faviconGradient" x1="0%" y1="0%" x2="100%" y2="100%">
      <stop offset="0%" style="stop-color:#00E599;stop-opacity:1" />
      <stop offset="100%" style="stop-color:#FF6B35;stop-opacity:1" />
    </linearGradient>
  </defs>
  
  <!-- Simplified icon for favicon -->
  <g transform="translate(4, 4)">
    <!-- Main hexagon -->
    <polygon points="12,2 20,2 24,10 24,18 20,26 12,26 8,18 8,10" 
             fill="url(#faviconGradient)" 
             stroke="none"/>
    
    <!-- Simplified gear teeth -->
    <rect x="14" y="0" width="4" height="3" fill="url(#faviconGradient)" />
    <rect x="22" y="5" width="3" height="4" fill="url(#faviconGradient)" />
    <rect x="22" y="19" width="3" height="4" fill="url(#faviconGradient)" />
    <rect x="14" y="25" width="4" height="3" fill="url(#faviconGradient)" />
    <rect x="5" y="19" width="3" height="4" fill="url(#faviconGradient)" />
    <rect x="5" y="5" width="3" height="4" fill="url(#faviconGradient)" />
    
    <!-- Simple lightning bolt -->
    <path d="M 18 6 L 12 12 L 15 12 L 14 18 L 10 18 L 16 22 L 20 16 L 17 16 L 18 10 L 22 10 Z" 
          fill="white" 
          stroke="none"/>
  </g>
  
  <!-- Accessibility -->
  <title>NeoRust Favicon</title>
  <desc>NeoRust SDK Favicon</desc>
</svg> 