<svg viewBox="0 0 60 60" xmlns="http://www.w3.org/2000/svg">
  <defs>
    <!-- Main gradient from Neo green to Rust orange -->
    <linearGradient id="iconGradient" x1="0%" y1="0%" x2="100%" y2="100%">
      <stop offset="0%" style="stop-color:#00E599;stop-opacity:1" />
      <stop offset="100%" style="stop-color:#FF6B35;stop-opacity:1" />
    </linearGradient>
  </defs>
  
  <!-- Icon: Hexagonal gear with lightning -->
  <g transform="translate(5, 5)">
    <!-- Base hexagon with gear teeth -->
    <g fill="url(#iconGradient)">
      <!-- Main hexagon shape -->
      <polygon points="25,8 40,8 48,22 48,38 40,52 25,52 17,38 17,22" />
      
      <!-- Gear teeth around perimeter -->
      <rect x="30" y="5" width="5" height="6" />
      <rect x="42" y="12" width="6" height="5" transform="rotate(60 45 14.5)" />
      <rect x="42" y="43" width="6" height="5" transform="rotate(-60 45 45.5)" />
      <rect x="30" y="52" width="5" height="6" />
      <rect x="14" y="43" width="6" height="5" transform="rotate(60 17 45.5)" />
      <rect x="14" y="12" width="6" height="5" transform="rotate(-60 17 14.5)" />
    </g>
    
    <!-- Lightning bolt -->
    <path d="M 35 15 L 28 25 L 32 25 L 30 35 L 22 35 L 30 45 L 37 35 L 33 35 L 35 25 L 43 25 Z" 
          fill="white" 
          stroke="none"/>
  </g>
  
  <!-- Accessibility -->
  <title>NeoRust Icon</title>
  <desc>NeoRust SDK Icon - Hexagonal gear with lightning bolt</desc>
</svg> 